<svg xmlns="http://www.w3.org/2000/svg" xmlns:xlink="http://www.w3.org/1999/xlink" viewBox="0 0 970 50"><defs><linearGradient id="Dégradé_sans_nom_14" x1="0.25" y1="25" x2="969.75" y2="25" gradientUnits="userSpaceOnUse"><stop offset="0" stop-color="#782d45"/><stop offset="1" stop-color="#010c23"/></linearGradient></defs><title>Fichier 3</title><g id="Calque_2" data-name="Calque 2"><g id="Calque_1-2" data-name="Calque 1"><rect x="0.25" y="0.25" width="969.5" height="49.5" rx="4.75" style="fill:url(#Dégradé_sans_nom_14)"/><path d="M965,.5A4.51,4.51,0,0,1,969.5,5V45a4.51,4.51,0,0,1-4.5,4.5H5A4.51,4.51,0,0,1,.5,45V5A4.51,4.51,0,0,1,5,.5H965m0-.5H5A5,5,0,0,0,0,5V45a5,5,0,0,0,5,5H965a5,5,0,0,0,5-5V5a5,5,0,0,0-5-5Z" style="fill:#fff"/><path d="M413,12.9a40.85,40.85,0,0,1,6.48-.48c4.17,0,7,.86,9.06,2.57s3.49,4.41,3.49,8.18c0,4-1.36,6.94-3.46,8.85s-5.76,3-10.08,3a44.13,44.13,0,0,1-5.49-.29Zm4.06,18.84a16.72,16.72,0,0,0,2.26.1c5.28,0,8.42-2.9,8.42-8.53,0-4.9-2.81-7.73-7.91-7.73a14.2,14.2,0,0,0-2.77.23Z" style="fill:#fff"/><path d="M444.42,34.83,444.15,33h-.1a5.89,5.89,0,0,1-4.74,2.16,4.76,4.76,0,0,1-5.06-4.78c0-4.06,3.61-6.11,9.53-6.08v-.27c0-1.06-.42-2.81-3.26-2.8a8.55,8.55,0,0,0-4.32,1.2l-.81-2.64a11.56,11.56,0,0,1,5.82-1.43c5.16,0,6.63,3.25,6.63,6.78V31a23.65,23.65,0,0,0,.25,3.87ZM443.89,27c-2.87,0-5.61.56-5.61,3a2.14,2.14,0,0,0,2.31,2.31,3.3,3.3,0,0,0,3.18-2.22,3,3,0,0,0,.12-.88Z" style="fill:#fff"/><path d="M456.6,14.17v4.6h3.86v3H456.6v7.09c0,2,.52,3,2.08,3a6.11,6.11,0,0,0,1.58-.18l.08,3.09a9.09,9.09,0,0,1-3,.42,4.72,4.72,0,0,1-3.49-1.32c-.87-.92-1.27-2.4-1.27-4.51V21.79h-2.29v-3h2.29V15.13Z" style="fill:#fff"/><path d="M472.57,34.83,472.29,33h-.09a5.89,5.89,0,0,1-4.74,2.16,4.76,4.76,0,0,1-5.06-4.78c0-4.06,3.61-6.11,9.53-6.08v-.27c0-1.06-.42-2.81-3.27-2.8a8.61,8.61,0,0,0-4.32,1.2l-.8-2.64a11.56,11.56,0,0,1,5.82-1.43c5.16,0,6.63,3.25,6.63,6.78V31a23.65,23.65,0,0,0,.25,3.87ZM472,27c-2.86,0-5.6.56-5.6,3a2.14,2.14,0,0,0,2.31,2.31,3.3,3.3,0,0,0,3.18-2.22,3,3,0,0,0,.11-.88Z" style="fill:#fff"/><path d="M480.16,34.83c.08-1.08.13-2.85.13-4.5V11.4h4.07V21h.06a5.77,5.77,0,0,1,5.13-2.58c3.92,0,6.73,3.25,6.7,8.15,0,5.77-3.66,8.65-7.3,8.65a5.5,5.5,0,0,1-5.06-2.78h-.07l-.19,2.41Zm4.2-6.64a4.13,4.13,0,0,0,.1.95A3.7,3.7,0,0,0,488,32c2.55,0,4.09-2,4.09-5.28,0-2.82-1.36-5.15-4-5.15a3.77,3.77,0,0,0-3.6,3,4.33,4.33,0,0,0-.13,1.06Z" style="fill:#fff"/><path d="M508.64,34.83,508.36,33h-.1a5.85,5.85,0,0,1-4.73,2.16,4.77,4.77,0,0,1-5.07-4.78c0-4.06,3.62-6.11,9.54-6.08v-.27c0-1.06-.42-2.81-3.27-2.8a8.61,8.61,0,0,0-4.32,1.2l-.8-2.64a11.56,11.56,0,0,1,5.82-1.43c5.15,0,6.63,3.25,6.63,6.78V31a23.65,23.65,0,0,0,.25,3.87ZM508.1,27c-2.86,0-5.61.56-5.61,3a2.15,2.15,0,0,0,2.32,2.31A3.3,3.3,0,0,0,508,30.07a3,3,0,0,0,.11-.88Z" style="fill:#fff"/><path d="M516.17,31.1a9,9,0,0,0,4.1,1.17c1.79,0,2.59-.75,2.59-1.8s-.67-1.64-2.64-2.35c-3.15-1.07-4.46-2.78-4.44-4.69,0-2.82,2.35-5,6.09-5a9.42,9.42,0,0,1,4.27,1l-.81,2.86a7.24,7.24,0,0,0-3.4-.93c-1.44,0-2.25.71-2.25,1.7s.78,1.51,2.81,2.25c2.92,1,4.27,2.53,4.28,4.9,0,2.93-2.28,5-6.52,5a10.44,10.44,0,0,1-4.9-1.12Z" style="fill:#fff"/><path d="M533,27.93c.1,2.91,2.36,4.18,5,4.18a12.2,12.2,0,0,0,4.43-.74l.6,2.79a14.38,14.38,0,0,1-5.61,1c-5.22,0-8.27-3.22-8.27-8.15,0-4.43,2.69-8.63,7.86-8.63s6.92,4.3,6.92,7.82a9.32,9.32,0,0,1-.14,1.71Zm7.06-2.84c0-1.49-.63-3.91-3.35-3.91-2.5,0-3.54,2.27-3.72,3.91Z" style="fill:#fff"/><path d="M547,31.1a9,9,0,0,0,4.1,1.17c1.79,0,2.58-.75,2.58-1.8S553,28.83,551,28.12c-3.15-1.07-4.46-2.78-4.45-4.69,0-2.82,2.35-5,6.1-5a9.34,9.34,0,0,1,4.26,1l-.8,2.86a7.24,7.24,0,0,0-3.4-.93c-1.45,0-2.25.71-2.25,1.7s.77,1.51,2.8,2.25c2.93,1,4.28,2.53,4.29,4.9,0,2.93-2.28,5-6.52,5a10.4,10.4,0,0,1-4.9-1.12Z" style="fill:#fff"/></g></g></svg>