<svg xmlns="http://www.w3.org/2000/svg" xmlns:xlink="http://www.w3.org/1999/xlink" viewBox="0 0 970 50"><defs><linearGradient id="Dégradé_sans_nom_14" x1="0.25" y1="25" x2="969.75" y2="25" gradientUnits="userSpaceOnUse"><stop offset="0" stop-color="#782d45"/><stop offset="1" stop-color="#010c23"/></linearGradient></defs><title>Fichier 6</title><g id="Calque_2" data-name="Calque 2"><g id="Calque_1-2" data-name="Calque 1"><rect x="0.25" y="0.25" width="969.5" height="49.5" rx="4.75" style="fill:url(#Dégradé_sans_nom_14)"/><path d="M965,.5A4.51,4.51,0,0,1,969.5,5V45a4.51,4.51,0,0,1-4.5,4.5H5A4.51,4.51,0,0,1,.5,45V5A4.51,4.51,0,0,1,5,.5H965m0-.5H5A5,5,0,0,0,0,5V45a5,5,0,0,0,5,5H965a5,5,0,0,0,5-5V5a5,5,0,0,0-5-5Z" style="fill:#fff"/><path d="M409,12.59h4.06V31.43h9.15v3.4H409Z" style="fill:#fff"/><path d="M434.25,34.83,434,33h-.09a5.89,5.89,0,0,1-4.74,2.16,4.76,4.76,0,0,1-5.06-4.78c0-4.06,3.61-6.11,9.53-6.08v-.27c0-1.06-.42-2.81-3.27-2.8a8.61,8.61,0,0,0-4.32,1.2l-.8-2.64A11.56,11.56,0,0,1,431,18.4c5.16,0,6.63,3.25,6.63,6.78V31a23.65,23.65,0,0,0,.25,3.87ZM433.71,27c-2.86,0-5.61.56-5.61,3a2.15,2.15,0,0,0,2.32,2.31,3.3,3.3,0,0,0,3.18-2.22,3,3,0,0,0,.11-.88Z" style="fill:#fff"/><path d="M442,23.55c0-1.86-.06-3.39-.13-4.78h3.55l.2,2.41h.09a5.84,5.84,0,0,1,5.12-2.78c2.8,0,5.71,1.81,5.71,6.89v9.54h-4.06V25.77c0-2.31-.85-4.06-3.07-4.06a3.36,3.36,0,0,0-3.16,2.38,3.85,3.85,0,0,0-.19,1.29v9.45H442Z" style="fill:#fff"/><path d="M475.54,18.77c-.08,1.08-.14,2.41-.14,4.61V32.5c0,3.37-.68,5.76-2.38,7.28a9.24,9.24,0,0,1-6.22,1.95,11.6,11.6,0,0,1-5.59-1.27l.88-3.1a9.47,9.47,0,0,0,4.69,1.24c2.64,0,4.61-1.39,4.61-4.85V32.38h-.06a5.41,5.41,0,0,1-4.68,2.35c-4,0-6.82-3.3-6.82-7.84,0-5.3,3.43-8.49,7.27-8.49a5.06,5.06,0,0,1,4.67,2.51h.07l.14-2.14Zm-4.2,6.44a4.12,4.12,0,0,0-.13-1.09,3.38,3.38,0,0,0-3.32-2.61c-2.25,0-3.95,2-3.95,5.25,0,2.73,1.38,4.94,3.93,4.94a3.43,3.43,0,0,0,3.29-2.46,5.17,5.17,0,0,0,.18-1.42Z" style="fill:#fff"/><path d="M494.14,30c0,1.91.06,3.51.13,4.81h-3.55l-.2-2.42h-.09a5.85,5.85,0,0,1-5.15,2.79c-2.93,0-5.59-1.76-5.59-7V18.77h4.06v8.74c0,2.67.85,4.38,3,4.38a3.36,3.36,0,0,0,3.1-2.17,3.46,3.46,0,0,0,.22-1.26V18.77h4.07Z" style="fill:#fff"/><path d="M507.58,34.83,507.3,33h-.1a5.85,5.85,0,0,1-4.73,2.16,4.77,4.77,0,0,1-5.07-4.78c0-4.06,3.61-6.11,9.53-6.08v-.27c0-1.06-.42-2.81-3.26-2.8a8.55,8.55,0,0,0-4.32,1.2l-.81-2.64a11.63,11.63,0,0,1,5.83-1.43c5.15,0,6.62,3.25,6.62,6.78V31a23.65,23.65,0,0,0,.25,3.87ZM507,27c-2.87,0-5.61.56-5.61,3a2.14,2.14,0,0,0,2.32,2.31,3,3,0,0,0,3.29-3.1Z" style="fill:#fff"/><path d="M530,18.77c-.07,1.08-.13,2.41-.13,4.61V32.5c0,3.37-.69,5.76-2.38,7.28a9.24,9.24,0,0,1-6.22,1.95,11.6,11.6,0,0,1-5.59-1.27l.88-3.1a9.46,9.46,0,0,0,4.68,1.24c2.64,0,4.62-1.39,4.62-4.85V32.38h-.06a5.41,5.41,0,0,1-4.68,2.35c-4,0-6.82-3.3-6.82-7.84,0-5.3,3.43-8.49,7.27-8.49a5.06,5.06,0,0,1,4.67,2.51h.07l.14-2.14Zm-4.19,6.44a4.12,4.12,0,0,0-.13-1.09,3.38,3.38,0,0,0-3.32-2.61c-2.25,0-4,2-4,5.25,0,2.73,1.38,4.94,3.93,4.94a3.41,3.41,0,0,0,3.28-2.46,5.18,5.18,0,0,0,.19-1.42Z" style="fill:#fff"/><path d="M537.07,27.93c.11,2.91,2.36,4.18,5,4.18a12.3,12.3,0,0,0,4.44-.74l.6,2.79a14.43,14.43,0,0,1-5.62,1c-5.21,0-8.27-3.22-8.27-8.15,0-4.43,2.69-8.63,7.86-8.63S548,22.7,548,26.22a8.5,8.5,0,0,1-.14,1.71Zm7.07-2.84c0-1.49-.63-3.91-3.35-3.91-2.5,0-3.54,2.27-3.73,3.91Z" style="fill:#fff"/><path d="M551,31.1a9,9,0,0,0,4.1,1.17c1.79,0,2.59-.75,2.59-1.8s-.66-1.64-2.64-2.35c-3.15-1.07-4.46-2.78-4.44-4.69,0-2.82,2.35-5,6.1-5a9.34,9.34,0,0,1,4.26,1l-.81,2.86a7.16,7.16,0,0,0-3.4-.93c-1.44,0-2.25.71-2.25,1.7s.78,1.51,2.81,2.25c2.92,1,4.27,2.53,4.29,4.9,0,2.93-2.29,5-6.53,5a10.39,10.39,0,0,1-4.89-1.12Z" style="fill:#fff"/></g></g></svg>