<svg xmlns="http://www.w3.org/2000/svg" xmlns:xlink="http://www.w3.org/1999/xlink" viewBox="0 0 970 50"><defs><linearGradient id="Dégradé_sans_nom_14" x1="0.25" y1="25" x2="969.75" y2="25" gradientUnits="userSpaceOnUse"><stop offset="0" stop-color="#782d45"/><stop offset="1" stop-color="#010c23"/></linearGradient></defs><title>Fichier 2</title><g id="Calque_2" data-name="Calque 2"><g id="Calque_1-2" data-name="Calque 1"><rect x="0.25" y="0.25" width="969.5" height="49.5" rx="4.75" style="fill:url(#Dégradé_sans_nom_14)"/><path d="M965,.5A4.51,4.51,0,0,1,969.5,5V45a4.51,4.51,0,0,1-4.5,4.5H5A4.51,4.51,0,0,1,.5,45V5A4.51,4.51,0,0,1,5,.5H965m0-.5H5A5,5,0,0,0,0,5V45a5,5,0,0,0,5,5H965a5,5,0,0,0,5-5V5a5,5,0,0,0-5-5Z" style="fill:#fff"/><path d="M450,12.59h4.06V31.43h9.15v3.4H450Z" style="fill:#fff"/><path d="M470.45,14.27a2.27,2.27,0,1,1-2.27-2.2A2.15,2.15,0,0,1,470.45,14.27Zm-4.3,20.56V18.77h4.06V34.83Z" style="fill:#fff"/><path d="M474.6,23.55c0-1.86-.06-3.39-.14-4.78H478l.2,2.41h.1a5.84,5.84,0,0,1,5.12-2.78c2.8,0,5.71,1.81,5.71,6.89v9.54h-4.07V25.77c0-2.31-.84-4.06-3.06-4.06a3.36,3.36,0,0,0-3.16,2.38,3.85,3.85,0,0,0-.19,1.29v9.45H474.6Z" style="fill:#fff"/><path d="M497.53,25.81h.06c.39-.62.85-1.31,1.27-1.88l3.92-5.16h4.88l-6,6.56,6.8,9.5h-5l-4.62-7.1-1.37,1.63v5.47h-4.06V11.4h4.06Z" style="fill:#fff"/><path d="M510.07,31.1a9,9,0,0,0,4.1,1.17c1.79,0,2.59-.75,2.59-1.8s-.67-1.64-2.64-2.35c-3.15-1.07-4.46-2.78-4.44-4.69,0-2.82,2.35-5,6.1-5a9.38,9.38,0,0,1,4.26,1l-.81,2.86a7.24,7.24,0,0,0-3.4-.93c-1.44,0-2.25.71-2.25,1.7s.78,1.51,2.81,2.25c2.92,1,4.27,2.53,4.29,4.9,0,2.93-2.29,5-6.53,5a10.47,10.47,0,0,1-4.9-1.12Z" style="fill:#fff"/></g></g></svg>