<svg xmlns="http://www.w3.org/2000/svg" xmlns:xlink="http://www.w3.org/1999/xlink" viewBox="0 0 970 50"><defs><linearGradient id="Dégradé_sans_nom_14" x1="0.25" y1="25" x2="969.75" y2="25" gradientUnits="userSpaceOnUse"><stop offset="0" stop-color="#782d45"/><stop offset="1" stop-color="#010c23"/></linearGradient></defs><title>Fichier 5</title><g id="Calque_2" data-name="Calque 2"><g id="Calque_1-2" data-name="Calque 1"><rect x="0.25" y="0.25" width="969.5" height="49.5" rx="4.75" style="fill:url(#Dégradé_sans_nom_14)"/><path d="M965,.5A4.51,4.51,0,0,1,969.5,5V45a4.51,4.51,0,0,1-4.5,4.5H5A4.51,4.51,0,0,1,.5,45V5A4.51,4.51,0,0,1,5,.5H965m0-.5H5A5,5,0,0,0,0,5V45a5,5,0,0,0,5,5H965a5,5,0,0,0,5-5V5a5,5,0,0,0-5-5Z" style="fill:#fff"/><path d="M464.77,23.49c0,7.45-4.52,11.71-10.65,11.71-6.28,0-10.26-4.8-10.26-11.32,0-6.83,4.32-11.65,10.59-11.65C460.94,12.23,464.77,17.13,464.77,23.49Zm-16.62.31c0,4.54,2.29,8.15,6.18,8.15s6.15-3.66,6.15-8.31c0-4.2-2.09-8.16-6.14-8.16S448.15,19.23,448.15,23.8Z" style="fill:#fff"/><path d="M490,15a7.3,7.3,0,0,0-3.29-.75c-2.82,0-3.74,1.71-3.74,3.83v.67h9.58V34.83h-4.07v-13H483v13H479v-13h-5.92v13H469v-13h-2.18v-3H469v-.48A7.15,7.15,0,0,1,471,13a6.27,6.27,0,0,1,4.5-1.63,7.22,7.22,0,0,1,2.81.62l-1,3a3.72,3.72,0,0,0-1.68-.43,2.29,2.29,0,0,0-1.74.69,4.28,4.28,0,0,0-.88,2.95v.59h6V18c0-4.34,3-7,7.78-7A9.74,9.74,0,0,1,491,12Z" style="fill:#fff"/><path d="M508.74,34.35a11.46,11.46,0,0,1-4.53.83c-5,0-8.29-3.23-8.29-8.22,0-4.81,3.29-8.55,8.94-8.55a10.5,10.5,0,0,1,3.93.74l-.73,3.05a6.79,6.79,0,0,0-3.07-.63c-3.1,0-4.93,2.27-4.92,5.21,0,3.3,2.16,5.19,4.93,5.19a7.75,7.75,0,0,0,3.19-.64Z" style="fill:#fff"/><path d="M514.33,27.93c.11,2.91,2.36,4.18,5,4.18a12.3,12.3,0,0,0,4.44-.74l.6,2.79a14.43,14.43,0,0,1-5.62,1c-5.21,0-8.27-3.22-8.27-8.15,0-4.43,2.69-8.63,7.86-8.63s6.92,4.3,6.92,7.82a8.5,8.5,0,0,1-.14,1.71Zm7.07-2.84c0-1.49-.63-3.91-3.35-3.91-2.5,0-3.54,2.27-3.73,3.91Z" style="fill:#fff"/></g></g></svg>