<svg xmlns="http://www.w3.org/2000/svg" xmlns:xlink="http://www.w3.org/1999/xlink" viewBox="0 0 970 50"><defs><linearGradient id="Dégradé_sans_nom_14" x1="0.25" y1="25" x2="969.75" y2="25" gradientUnits="userSpaceOnUse"><stop offset="0" stop-color="#782d45"/><stop offset="1" stop-color="#010c23"/></linearGradient></defs><title>Fichier 4</title><g id="Calque_2" data-name="Calque 2"><g id="Calque_1-2" data-name="Calque 1"><rect x="0.25" y="0.25" width="969.5" height="49.5" rx="4.75" style="fill:url(#Dégradé_sans_nom_14)"/><path d="M965,.5A4.51,4.51,0,0,1,969.5,5V45a4.51,4.51,0,0,1-4.5,4.5H5A4.51,4.51,0,0,1,.5,45V5A4.51,4.51,0,0,1,5,.5H965m0-.5H5A5,5,0,0,0,0,5V45a5,5,0,0,0,5,5H965a5,5,0,0,0,5-5V5a5,5,0,0,0-5-5Z" style="fill:#fff"/><path d="M301.29,16h-6.35V12.59h16.83V16h-6.42V34.83h-4.06Z" style="fill:#fff"/><path d="M314.52,27.93c.11,2.91,2.36,4.18,5,4.18a12.3,12.3,0,0,0,4.44-.74l.6,2.79a14.43,14.43,0,0,1-5.62,1c-5.21,0-8.27-3.22-8.27-8.15,0-4.43,2.69-8.63,7.86-8.63s6.92,4.3,6.92,7.82a8.5,8.5,0,0,1-.14,1.71Zm7.07-2.84c0-1.49-.63-3.91-3.35-3.91-2.5,0-3.54,2.27-3.72,3.91Z" style="fill:#fff"/><path d="M340.48,34.35a11.48,11.48,0,0,1-4.54.83c-5,0-8.28-3.23-8.28-8.22,0-4.81,3.29-8.55,8.94-8.55a10.44,10.44,0,0,1,3.92.74l-.72,3.05a6.79,6.79,0,0,0-3.07-.63c-3.1,0-4.94,2.27-4.92,5.21,0,3.3,2.16,5.19,4.93,5.19a7.79,7.79,0,0,0,3.19-.64Z" style="fill:#fff"/><path d="M343.51,11.4h4.06V21h.07a5.6,5.6,0,0,1,2-1.84,5.69,5.69,0,0,1,2.78-.72c2.73,0,5.61,1.82,5.61,7v9.46H354v-9c0-2.33-.84-4.1-3.09-4.1a3.37,3.37,0,0,0-3.33,3.5v9.61h-4.06Z" style="fill:#fff"/><path d="M362.38,23.55c0-1.86-.06-3.39-.13-4.78h3.55l.2,2.41h.1a5.84,5.84,0,0,1,5.12-2.78c2.8,0,5.71,1.81,5.71,6.89v9.54h-4.07V25.77c0-2.31-.84-4.06-3.06-4.06a3.39,3.39,0,0,0-3.17,2.38,4.14,4.14,0,0,0-.18,1.29v9.45h-4.07Z" style="fill:#fff"/><path d="M396.52,26.64c0,5.91-4.14,8.56-8.25,8.56-4.53,0-8-3.13-8-8.28s3.47-8.52,8.31-8.52S396.52,21.77,396.52,26.64Zm-12.12.18c0,3.09,1.55,5.43,4,5.43s4-2.25,4-5.49c0-2.52-1.12-5.4-3.92-5.4S384.4,24.14,384.4,26.82Z" style="fill:#fff"/><path d="M399.87,11.4h4.07V34.83h-4.07Z" style="fill:#fff"/><path d="M423.62,26.64c0,5.91-4.15,8.56-8.26,8.56-4.53,0-8-3.13-8-8.28s3.47-8.52,8.31-8.52S423.62,21.77,423.62,26.64Zm-12.12.18c0,3.09,1.54,5.43,4,5.43s3.95-2.25,3.95-5.49c0-2.52-1.12-5.4-3.92-5.4S411.5,24.14,411.5,26.82Z" style="fill:#fff"/><path d="M441.71,18.77c-.08,1.08-.14,2.41-.14,4.61V32.5c0,3.37-.68,5.76-2.37,7.28A9.26,9.26,0,0,1,433,41.73a11.6,11.6,0,0,1-5.59-1.27l.87-3.1A9.5,9.5,0,0,0,433,38.6c2.64,0,4.62-1.39,4.62-4.85V32.38h-.07a5.4,5.4,0,0,1-4.68,2.35c-4,0-6.82-3.3-6.82-7.84,0-5.3,3.43-8.49,7.27-8.49A5.07,5.07,0,0,1,438,20.91H438l.15-2.14Zm-4.2,6.44a3.75,3.75,0,0,0-.13-1.09,3.38,3.38,0,0,0-3.32-2.61c-2.25,0-3.94,2-3.94,5.25,0,2.73,1.38,4.94,3.93,4.94a3.42,3.42,0,0,0,3.28-2.46,5.17,5.17,0,0,0,.18-1.42Z" style="fill:#fff"/><path d="M450.11,14.27a2.16,2.16,0,0,1-2.32,2.19,2.13,2.13,0,0,1-2.22-2.19,2.27,2.27,0,0,1,4.54,0Zm-4.3,20.56V18.77h4.06V34.83Z" style="fill:#fff"/><path d="M457.11,27.93c.11,2.91,2.36,4.18,5,4.18a12.28,12.28,0,0,0,4.43-.74l.6,2.79a14.41,14.41,0,0,1-5.61,1c-5.22,0-8.28-3.22-8.28-8.15,0-4.43,2.69-8.63,7.86-8.63S468,22.7,468,26.22a8.5,8.5,0,0,1-.14,1.71Zm7.07-2.84c0-1.49-.63-3.91-3.35-3.91-2.5,0-3.54,2.27-3.72,3.91Z" style="fill:#fff"/><path d="M471.08,31.1a9,9,0,0,0,4.11,1.17c1.78,0,2.58-.75,2.58-1.8s-.66-1.64-2.64-2.35c-3.14-1.07-4.45-2.78-4.44-4.69,0-2.82,2.35-5,6.1-5a9.34,9.34,0,0,1,4.26,1l-.8,2.86a7.24,7.24,0,0,0-3.4-.93c-1.45,0-2.25.71-2.25,1.7s.77,1.51,2.8,2.25c2.93,1,4.27,2.53,4.29,4.9,0,2.93-2.28,5-6.53,5a10.39,10.39,0,0,1-4.89-1.12Z" style="fill:#fff"/><path d="M483.13,36.16l8-23.93H494L486,36.16Z" style="fill:#fff"/><path d="M503.13,12.59H516v3.34h-8.8v6.14h8.18v3.32H507.2v9.44h-4.07Z" style="fill:#fff"/><path d="M519.06,23.93c0-2.15,0-3.73-.13-5.16h3.52l.15,3.05h.11a4.8,4.8,0,0,1,4.4-3.42,3.93,3.93,0,0,1,.95.09v3.83a5.6,5.6,0,0,0-1.19-.12,3.59,3.59,0,0,0-3.64,3.08,6.62,6.62,0,0,0-.1,1.22v8.33h-4.07Z" style="fill:#fff"/><path d="M539.55,34.83,539.28,33h-.1a5.89,5.89,0,0,1-4.74,2.16,4.76,4.76,0,0,1-5.06-4.78c0-4.06,3.61-6.11,9.53-6.08v-.27c0-1.06-.42-2.81-3.27-2.8a8.54,8.54,0,0,0-4.31,1.2l-.81-2.64a11.56,11.56,0,0,1,5.82-1.43c5.16,0,6.63,3.25,6.63,6.78V31a23.65,23.65,0,0,0,.25,3.87ZM539,27c-2.87,0-5.61.56-5.61,3a2.14,2.14,0,0,0,2.31,2.31,3.3,3.3,0,0,0,3.18-2.22,3,3,0,0,0,.12-.88Z" style="fill:#fff"/><path d="M547.28,23.55c0-1.86-.06-3.39-.13-4.78h3.47l.18,2.36h.1a5.51,5.51,0,0,1,4.94-2.73,4.62,4.62,0,0,1,4.46,3h.07a6.66,6.66,0,0,1,2-2,5.54,5.54,0,0,1,3.27-1c2.65,0,5.36,1.82,5.36,7v9.45h-4V26c0-2.68-.93-4.25-2.87-4.25a3,3,0,0,0-2.82,2.14,4.49,4.49,0,0,0-.21,1.35v9.64h-4V25.54c0-2.26-.91-3.84-2.77-3.84A3.23,3.23,0,0,0,551.44,24a4.28,4.28,0,0,0-.2,1.35v9.49h-4Z" style="fill:#fff"/><path d="M578.12,27.93c.11,2.91,2.36,4.18,5,4.18a12.3,12.3,0,0,0,4.44-.74l.6,2.79a14.43,14.43,0,0,1-5.62,1c-5.21,0-8.27-3.22-8.27-8.15,0-4.43,2.69-8.63,7.86-8.63S589,22.7,589,26.22a8.5,8.5,0,0,1-.14,1.71Zm7.07-2.84c0-1.49-.63-3.91-3.35-3.91-2.5,0-3.54,2.27-3.72,3.91Z" style="fill:#fff"/><path d="M594.61,18.77l1.68,7.28c.38,1.72.74,3.46,1,5.21h.08c.32-1.73.83-3.52,1.29-5.18l2.11-7.31h3.28l2,7.13c.5,1.87.94,3.62,1.28,5.36h.08c.25-1.73.62-3.49,1.07-5.36l1.78-7.13h4l-5,16.06h-3.78l-1.92-6.54a49.24,49.24,0,0,1-1.22-5.14h-.06a42.8,42.8,0,0,1-1.23,5.14l-2,6.54h-3.79l-4.75-16.06Z" style="fill:#fff"/><path d="M631.74,26.64c0,5.91-4.14,8.56-8.25,8.56-4.53,0-8-3.13-8-8.28s3.47-8.52,8.31-8.52S631.74,21.77,631.74,26.64Zm-12.11.18c0,3.09,1.54,5.43,4,5.43s4-2.25,4-5.49c0-2.52-1.12-5.4-3.92-5.4S619.63,24.14,619.63,26.82Z" style="fill:#fff"/><path d="M635.09,23.93c0-2.15-.05-3.73-.13-5.16h3.51l.16,3.05h.11a4.79,4.79,0,0,1,4.4-3.42,4,4,0,0,1,1,.09v3.83a5.67,5.67,0,0,0-1.19-.12,3.58,3.58,0,0,0-3.64,3.08,6.59,6.59,0,0,0-.11,1.22v8.33h-4.06Z" style="fill:#fff"/><path d="M650.9,25.81H651c.38-.62.85-1.31,1.27-1.88l3.92-5.16H661l-6,6.56,6.8,9.5h-5l-4.61-7.1-1.37,1.63v5.47h-4.06V11.4h4.06Z" style="fill:#fff"/><path d="M663.44,31.1a9,9,0,0,0,4.1,1.17c1.79,0,2.59-.75,2.59-1.8s-.67-1.64-2.64-2.35c-3.15-1.07-4.46-2.78-4.44-4.69,0-2.82,2.34-5,6.09-5a9.42,9.42,0,0,1,4.27,1l-.81,2.86a7.24,7.24,0,0,0-3.4-.93c-1.44,0-2.25.71-2.25,1.7s.78,1.51,2.81,2.25c2.92,1,4.27,2.53,4.28,4.9,0,2.93-2.28,5-6.52,5a10.44,10.44,0,0,1-4.9-1.12Z" style="fill:#fff"/></g></g></svg>