<svg xmlns="http://www.w3.org/2000/svg" xmlns:xlink="http://www.w3.org/1999/xlink" viewBox="0 0 970 50"><defs><linearGradient id="Dégradé_sans_nom_14" x1="0.25" y1="25" x2="969.75" y2="25" gradientUnits="userSpaceOnUse"><stop offset="0" stop-color="#782d45"/><stop offset="1" stop-color="#010c23"/></linearGradient></defs><title>Fichier 1</title><g id="Calque_2" data-name="Calque 2"><g id="Calque_1-2" data-name="Calque 1"><rect x="0.25" y="0.25" width="969.5" height="49.5" rx="4.75" style="fill:url(#Dégradé_sans_nom_14)"/><path d="M965,.5A4.51,4.51,0,0,1,969.5,5V45a4.51,4.51,0,0,1-4.5,4.5H5A4.51,4.51,0,0,1,.5,45V5A4.51,4.51,0,0,1,5,.5H965m0-.5H5A5,5,0,0,0,0,5V45a5,5,0,0,0,5,5H965a5,5,0,0,0,5-5V5a5,5,0,0,0-5-5Z" style="fill:#fff"/><path d="M412.62,34.83l-5.44-22.24h4.33l2.12,10.1c.55,2.71,1.08,5.54,1.45,7.74h.07c.36-2.32,1-5,1.62-7.79l2.39-10h4.28l2.2,10.24c.54,2.62,1,5.11,1.35,7.52h.07c.39-2.46.92-5,1.5-7.71l2.32-10H435l-6,22.24h-4.34l-2.3-10.47a69.13,69.13,0,0,1-1.25-7h-.07a68.7,68.7,0,0,1-1.46,7.05L417,34.83Z" style="fill:#fff"/><path d="M451.57,26.64c0,5.91-4.15,8.56-8.26,8.56-4.53,0-8-3.13-8-8.28s3.47-8.52,8.32-8.52S451.57,21.77,451.57,26.64Zm-12.12.18c0,3.09,1.54,5.43,4,5.43s3.95-2.25,3.95-5.49c0-2.52-1.12-5.4-3.92-5.4S439.45,24.14,439.45,26.82Z" style="fill:#fff"/><path d="M454.91,23.93c0-2.15,0-3.73-.13-5.16h3.52l.15,3.05h.11A4.8,4.8,0,0,1,463,18.4a3.93,3.93,0,0,1,1,.09v3.83a5.6,5.6,0,0,0-1.19-.12,3.59,3.59,0,0,0-3.64,3.08,6.62,6.62,0,0,0-.1,1.22v8.33h-4.07Z" style="fill:#fff"/><path d="M470.72,25.81h.06c.39-.62.85-1.31,1.27-1.88L476,18.77h4.88l-6,6.56,6.8,9.5h-5l-4.62-7.1-1.37,1.63v5.47h-4.06V11.4h4.06Z" style="fill:#fff"/><path d="M483.26,31.1a9,9,0,0,0,4.1,1.17c1.79,0,2.59-.75,2.59-1.8s-.67-1.64-2.64-2.35c-3.15-1.07-4.46-2.78-4.44-4.69,0-2.82,2.34-5,6.09-5a9.39,9.39,0,0,1,4.27,1l-.81,2.86a7.24,7.24,0,0,0-3.4-.93c-1.44,0-2.25.71-2.25,1.7s.78,1.51,2.81,2.25c2.92,1,4.27,2.53,4.29,4.9,0,2.93-2.29,5-6.53,5a10.44,10.44,0,0,1-4.9-1.12Z" style="fill:#fff"/><path d="M497.21,24.09c0-2.08,0-3.81-.13-5.32h3.57l.2,2.47h.07a6.21,6.21,0,0,1,5.5-2.84c3.69,0,6.75,3.16,6.75,8.17,0,5.83-3.65,8.63-7.31,8.63a5.23,5.23,0,0,1-4.52-2.15h-.06v8.32h-4.07Zm4.07,4a5,5,0,0,0,.11,1.11A3.68,3.68,0,0,0,505,32.06c2.57,0,4.08-2.14,4.08-5.3,0-2.84-1.38-5.16-4-5.16a3.82,3.82,0,0,0-3.63,3,4.48,4.48,0,0,0-.14,1Z" style="fill:#fff"/><path d="M525.56,34.83,525.28,33h-.09a5.89,5.89,0,0,1-4.74,2.16,4.77,4.77,0,0,1-5.07-4.78c0-4.06,3.62-6.11,9.54-6.08v-.27c0-1.06-.42-2.81-3.27-2.8a8.61,8.61,0,0,0-4.32,1.2l-.8-2.64a11.56,11.56,0,0,1,5.82-1.43c5.15,0,6.63,3.25,6.63,6.78V31a23.65,23.65,0,0,0,.25,3.87ZM525,27c-2.86,0-5.61.56-5.61,3a2.15,2.15,0,0,0,2.32,2.31,3.3,3.3,0,0,0,3.18-2.22,3,3,0,0,0,.11-.88Z" style="fill:#fff"/><path d="M545.08,34.35a11.52,11.52,0,0,1-4.54.83c-5,0-8.28-3.23-8.28-8.22,0-4.81,3.28-8.55,8.94-8.55a10.44,10.44,0,0,1,3.92.74l-.72,3.05a6.83,6.83,0,0,0-3.07-.63c-3.1,0-4.94,2.27-4.93,5.21,0,3.3,2.17,5.19,4.94,5.19a7.79,7.79,0,0,0,3.19-.64Z" style="fill:#fff"/><path d="M550.67,27.93c.1,2.91,2.36,4.18,5,4.18a12.24,12.24,0,0,0,4.43-.74l.6,2.79a14.38,14.38,0,0,1-5.61,1c-5.22,0-8.27-3.22-8.27-8.15,0-4.43,2.69-8.63,7.85-8.63s6.93,4.3,6.93,7.82a9.32,9.32,0,0,1-.14,1.71Zm7.06-2.84c0-1.49-.63-3.91-3.35-3.91-2.5,0-3.54,2.27-3.72,3.91Z" style="fill:#fff"/></g></g></svg>